# xmcd
#
# Track frame offsets:
#	150
#	14140
#	26815
#	40835
#	57620
#	75940
#	84580
#	94330
#	106540
#	125135
#	139260
#	151885
#	162410
#	180730
#
# Disc length: 2640 seconds
#
# Revision: 4
# Processed by: cddbd v1.5.2PL0 Copyright (c) Steve Scherf et al.
# Submitted via: EasyCDDAExtractor 16.0.6.1
#
DISCID=b80a4e0e
DTITLE=Sam Alpha - Brassens Créole - Vol. 1
DYEAR=1991
DGENRE=Blues
TTITLE0=lanmitié solide (Les copains d'abord)
TTITLE1=doudou ban foyal (Les amoureux des bancs publics)
TTITLE2=moin ka saluéw ou mawi (La prière)
TTITLE3=yo té la (Brave Margot)
TTITLE4=ti prinsès é manjè not (La princesse et le croque-notes)
TTITLE5=konpè toto (Tonton Nestor)
TTITLE6=jirétekv (La ronde des jurons)
TTITLE7=Prête-moi ta muse 
TTITLE8=mazouk jan lontan (La ballade des dames du temps jadis)
TTITLE9=kouplé ta la (Chanson pour l'Auvergnat)
TTITLE10=parapli (Le parapluie)
TTITLE11=an dlo clè la fontèn didié a (Dans l'eau de la claire fontaine)
TTITLE12=man hécto (La femme d'Hector)
TTITLE13=sé moin ki porno (Le pornographe)
EXTD=ID3G: 0
EXTT0=
EXTT1=
EXTT2=
EXTT3=
EXTT4=
EXTT5=
EXTT6=
EXTT7=
EXTT8=
EXTT9=
EXTT10=
EXTT11=
EXTT12=
EXTT13=
PLAYORDER=
